<?xml version="1.0" encoding="utf-8"?>
<!-- Generator: Adobe Illustrator 27.0.1, SVG Export Plug-In . SVG Version: 6.00 Build 0)  -->
<svg version="1.1" id="레이어_1" xmlns="http://www.w3.org/2000/svg" xmlns:xlink="http://www.w3.org/1999/xlink" x="0px"
	 y="0px" viewBox="0 0 500 96.53" style="enable-background:new 0 0 500 96.53;" xml:space="preserve">
<style type="text/css">
	.st0{fill:#5B8A3D;}
</style>
<g>
	<g>
		<g>
			<path class="st0" d="M74.25,0v96.53H55.59v-39.2H18.67v39.2H0V0h18.67v38.25h36.92V0H74.25z"/>
			<path class="st0" d="M144.05,46.83c0.89-0.28,1.97-0.76,3.28-1.55c5.03-3.03,8.43-10.16,8.43-16.5C155.76,11.13,145.3,0,126.74,0
				H85.41v45.88v17.74V74.5c0,12.16,9.86,22.02,22.02,22.02h52.23V67.9C159.66,57.96,153.08,49.57,144.05,46.83z M104.07,18.36
				h21.84c7.08,0,11.18,3.67,11.18,10.42s-4.1,10.3-11.18,10.3h-21.84V18.36z M142.15,81.73h-23.72c-7.93,0-14.36-6.43-14.36-14.36
				v-13.5h23.72c7.93,0,14.36,6.43,14.36,14.36V81.73z"/>
		</g>
	</g>
	<g>
		<path d="M225.53,25.39v45.74h-10.21V52.56h-20.2v18.58H184.9V25.39h10.21v18.13h20.2V25.39H225.53z"/>
		<path d="M233.62,25.39h19.87c10.16,0,15.88,5.28,15.88,13.64c0,3.25-2.19,6.96-5.33,8.14c4.38,1.4,7.46,5.67,7.46,10.1
			c0,8.47-6.06,13.86-16.33,13.86h-21.55V25.39z M253.03,43.91c3.87,0,6.12-1.68,6.12-4.88c0-3.2-2.24-4.94-6.12-4.94h-9.2v9.82
			H253.03z M254.72,62.43c4.04,0,6.57-1.8,6.57-5.16c0-3.37-2.53-5.16-6.57-5.16h-10.89v10.33H254.72z"/>
		<path d="M293.23,25.39h17.57c11.9,0,18.86,6.62,18.86,16.72c0,10.21-6.96,16.84-18.86,16.84h-7.35v12.18h-10.21V25.39z
			 M310.34,49.92c5.67,0,9.09-2.69,9.09-7.8c0-5.05-3.42-7.69-9.09-7.69h-6.9v15.49H310.34z"/>
		<path d="M358.44,62.27h-17.73l-3.2,8.87h-10.55l17.73-45.74h10.61l17.73,45.74h-11.39L358.44,62.27z M355.3,53.4l-5.72-15.94
			l-5.72,15.94H355.3z"/>
		<path d="M377.64,25.39h17.57c11.9,0,18.86,6.62,18.86,16.72c0,10.21-6.96,16.84-18.86,16.84h-7.35v12.18h-10.21V25.39z
			 M394.76,49.92c5.67,0,9.09-2.69,9.09-7.8c0-5.05-3.42-7.69-9.09-7.69h-6.9v15.49H394.76z"/>
		<path d="M419.57,25.39h34.01v8.87h-23.8v9.32h21.83v8.87h-21.83v9.82h24.3v8.87h-34.52V25.39z"/>
		<path d="M488.16,71.13l-8.87-14.42h-8.14v14.42h-10.21V25.39h18.41c11.62,0,18.41,6.17,18.41,15.66c0,6.29-2.97,11.11-8.36,13.64
			L500,71.13H488.16z M471.15,47.67h7.74c5.39,0,8.64-2.3,8.64-6.62s-3.26-6.62-8.64-6.62h-7.74V47.67z"/>
	</g>
</g>
</svg>
