<?xml version="1.0" encoding="utf-8"?>
<!-- Generator: Adobe Illustrator 16.0.0, SVG Export Plug-In . SVG Version: 6.00 Build 0)  -->
<!DOCTYPE svg PUBLIC "-//W3C//DTD SVG 1.1//EN" "http://www.w3.org/Graphics/SVG/1.1/DTD/svg11.dtd">
<svg version="1.1" id="레이어_1" xmlns="http://www.w3.org/2000/svg" xmlns:xlink="http://www.w3.org/1999/xlink" x="0px"
	 y="0px" width="1920px" height="1080px" viewBox="0 0 1920 1080" enable-background="new 0 0 1920 1080" xml:space="preserve">
<g>
	<g>
		<g>
			<path fill="#FFFFFF" d="M285.12,354.661v370.676h-71.655V574.808H71.693v150.527H0V354.661h71.691v146.881h141.772V354.661
				H285.12z"/>
			<path fill="#FFFFFF" d="M553.152,534.488c3.418-1.074,7.565-2.918,12.597-5.951c19.313-11.635,32.37-39.015,32.37-63.36
				c0-67.775-40.167-110.516-111.437-110.516H327.974v176.18v68.121v41.779c0,46.693,37.863,84.557,84.558,84.557h200.563V615.396
				C613.094,577.228,587.825,545.01,553.152,534.488z M399.629,425.163h83.864c27.188,0,42.932,14.094,42.932,40.014
				s-15.744,39.553-42.932,39.553h-83.864V425.163z M545.856,668.506h-91.085c-30.451,0-55.142-24.691-55.142-55.145v-51.84h91.084
				c30.451,0,55.143,24.691,55.143,55.143V668.506z"/>
		</g>
	</g>
	<g>
		<path fill="#FFFFFF" d="M866.034,452.158v175.642h-39.207v-71.309H749.26v71.348h-39.244V452.158h39.206v69.619h77.567v-69.619
			H866.034z"/>
		<path fill="#FFFFFF" d="M897.101,452.158h76.301c39.015,0,60.979,20.275,60.979,52.378c0,12.48-8.409,26.727-20.467,31.258
			c16.818,5.377,28.646,21.771,28.646,38.783c0,32.525-23.271,53.223-62.707,53.223h-82.752V452.158z M971.635,523.275
			c14.859,0,23.501-6.451,23.501-18.739s-8.603-18.97-23.501-18.97h-35.328v37.708H971.635L971.635,523.275z M978.123,594.392
			c15.515,0,25.229-6.912,25.229-19.814c0-12.939-9.716-19.813-25.229-19.813h-41.816v39.666h41.816V594.392z"/>
		<path fill="#FFFFFF" d="M1126.003,452.158h67.469c45.696,0,72.423,25.421,72.423,64.205c0,39.207-26.727,64.666-72.423,64.666
			h-28.224v46.771h-39.207V452.158H1126.003z M1191.704,546.353c21.772,0,34.905-10.328,34.905-29.952
			c0-19.392-13.133-29.528-34.905-29.528h-26.495v59.48H1191.704z"/>
		<path fill="#FFFFFF" d="M1376.408,593.777h-68.083l-12.288,34.063h-40.513l68.084-175.642h40.742l68.083,175.642h-43.737
			L1376.408,593.777z M1364.352,559.719l-21.965-61.209l-21.965,61.209H1364.352z"/>
		<path fill="#FFFFFF" d="M1450.137,452.158h67.469c45.696,0,72.423,25.421,72.423,64.205c0,39.207-26.728,64.666-72.423,64.666
			h-28.224v46.771h-39.206V452.158H1450.137z M1515.878,546.353c21.771,0,34.905-10.328,34.905-29.952
			c0-19.392-13.134-29.528-34.905-29.528h-26.496v59.48H1515.878z"/>
		<path fill="#FFFFFF" d="M1611.149,452.158h130.598v34.063h-91.392v35.789h83.827v34.061h-83.827v37.709h93.313v34.063H1611.11
			V452.158H1611.149z"/>
		<path fill="#FFFFFF" d="M1874.533,627.801l-34.062-55.371h-31.259v55.371h-39.205V452.158h70.693
			c44.621,0,70.695,23.693,70.695,60.136c0,24.153-11.405,42.661-32.104,52.377L1920,627.801H1874.533z M1809.215,537.715h29.723
			c20.697,0,33.178-8.832,33.178-25.42c0-16.59-12.52-25.421-33.178-25.421h-29.723V537.715z"/>
	</g>
</g>
</svg>
